<svg xmlns="http://www.w3.org/2000/svg" version="1.1" xmlns:xlink="http://www.w3.org/1999/xlink" xmlns:svgjs="http://svgjs.com/svgjs" width="3540" height="1060" preserveAspectRatio="none" viewBox="0 0 3540 1060"><g mask="url(&quot;#SvgjsMask1020&quot;)" fill="none"><path d="M 0,315 C 141.6,293 424.8,209.6 708,205 C 991.2,200.4 1132.8,298.8 1416,292 C 1699.2,285.2 1840.8,175.6 2124,171 C 2407.2,166.4 2548.8,286 2832,269 C 3115.2,252 3398.4,122.6 3540,86L3540 1060L0 1060z" fill="rgba(215, 219, 214, 1)"></path><path d="M 0,959 C 236,892 708,632 1180,624 C 1652,616 1888,885.8 2360,919 C 2832,952.2 3304,815.8 3540,790L3540 1060L0 1060z" fill="rgba(191, 194, 190, 1)"></path></g><defs><mask id="SvgjsMask1020"><rect width="3540" height="1060" fill="#ffffff"></rect></mask></defs></svg>